<svg xmlns="http://www.w3.org/2000/svg" viewBox="0 0 225 205" width="64" height="64">
	<mask id="circle">
		<rect width="250" height="250" fill="white" />
		<circle cx="165" cy="144" r="45" fill="black" />
	</mask>
	<path d="M 168 100 c 0 -10 6 -19 16 -24 c -2 -6 -4 -11 -7 -17 c -11 3 -20 -1 -27 -9 c -7 -7 -10 -16 -7 -27 c -5 -3 -11 -5 -17 -7 c -6 10 -16 16 -26 16 c -10 0 -21 -6 -26 -16 c -6 2 -11 4 -17 7 c 3 11 1 20 -7 27 c -7 7 -16 12 -27 9 c -3 5 -5 11 -7 17 c 10 6 16 14 16 24 c 0 10 -6 21 -16 26 c 2 6 4 11 7 17 c 11 -3 20 -1 27 7 c 7 7 10 16 7 27 c 5 3 11 5 17 7 c 6 -10 16 -16 26 -16 c 10 0 21 6 26 16 c 6 -2 11 -4 17 -7 c -3 -11 -1 -20 7 -27 c 7 -7 16 -12 27 -9 c 3 -5 5 -11 7 -17 c -10 -6 -16 -14 -16 -24 z m -68 37 c -20 0 -37 -16 -37 -37 c 0 -20 16 -37 37 -37 c 20 0 37 16 37 37 c 0 20 -16 37 -37 37 z" mask="url(#circle)"/>
	
	<path d="M 165 105 C 144 105 125 124 125 145 s 19 40 40 40 s 40 -19 40 -40 S 188 105 165 105 z M 179 148 l -20 13 c -1 0 -1 0 -1 0 c -1 0 -1 0 -1 0 C 156 160 155 159 155 158 V 133 c 0 -1 1 -3 1 -3 c 1 -1 3 -1 3 0 l 20 13 c 1 1 1 1 1 3 S 180 148 179 148 z"/>
</svg>
