<svg xmlns="http://www.w3.org/2000/svg" viewBox="2 0 42 40" width="64" height="64" fill="none" stroke="#000" stroke-width="2" stroke-linecap="square" >
	<mask id="m">
		<rect x="0" y="0" height="40" width="40" fill="white" />
		<path d="M35 22 38 25 36 27 33 24 35 22M34 29 28 35 24 36 25 32 31 26 34 29" stroke="#000" stroke-width="6" />
	</mask>
	<mask id="m2">
		<rect x="0" y="0" height="40" width="40" fill="white" />
		<path d="M28 32 28 35 24 36 25 32 28 32" stroke="none" fill="#000"/>
	</mask>
	<rect x="6" y="4" height="30" width="30" rx="3" mask="url(#m)" />
	<rect x="7" y="6" height="2" width="28" rx="0" fill="#000" />
	<path d="M8 6M11 14 11 15 12 15 12 14 11 14M18 14 18 15 30 15 30 14 18 14M11 20 12 20 12 21 11 21 11 20M18 20 18 21 30 21 30 20 18 20M11 26 12 26 12 27 11 27 11 26M18 26 18 27 30 27 30 26 18 26" mask="url(#m)" />

	<path d="M35 22 38 25 37 26 34 23 35 22M34 29 28 35 24 36 25 32 31 26 34 29" fill="#000" mask="url(#m2)" />
</svg>
