<svg xmlns="http://www.w3.org/2000/svg" xmlns:xlink="http://www.w3.org/1999/xlink" width="400" height="400" viewBox="0 2 12 7" fill="none" stroke="#000" stroke-width=".35" stroke-linecap="round" stroke-linejoin="round">
	<defs>
		<linearGradient id="main" gradientTransform="rotate(90)">
			<stop offset="5%"  stop-color="#fff000" />
			<stop offset="95%" stop-color="#f0a300" />
		</linearGradient>
		<g id="outline">
			<path d="M 1 2 V 8 C 1 9 1 9 2 9 H 10 C 11 9 11 9 11 8 V 3 C 11 2 11 2 10 2 L 6 2 C 5 2 6 1 5 1 L 2 1 C 1 1 1 1 1 2" />
		</g>	
	</defs>
    <use xlink:href="#outline" fill="url('#main')" />
	<path d="M 6 2 C 5 2 6 3 5 3 L 1 3 L 1 2 C 1 1 1 1 2 1 L 5 1 C 6 1 5 2 6 2 Z" style="stroke:#e59500;stroke-width:.15" fill="url('#main')" />
	<use xlink:href="#outline" />
</svg>
