<svg xmlns="http://www.w3.org/2000/svg" viewBox="0 0 20 20" width="64" height="64">
	<path d="M14.1 2.2C12.9 1.4 11.5 1 9.8 1 8.5 1 7.4 1.3 6.5 1.9 5 2.8 4.3 4.3 4.2 6.5H7.5C7.5 5.9 7.7 5.3 8.1 4.7 8.5 4.1 9.1 3.8 10 3.8 10.9 3.8 11.5 4 11.9 4.5 12.2 5 12.4 5.5 12.4 6.1 12.4 6.6 12.1 7.1 11.8 7.5 11.6 7.7 11.4 8 11.1 8.2 11.1 8.2 9.3 9.3 8.5 10.3 8 10.8 8 11.6 8 12.8 8 12.9 8 13.1 8.3 13.1 8.6 13.1 10.6 13.1 10.9 13.1 11.2 13.1 11.2 12.9 11.2 12.8 11.2 12.4 11.3 12.2 11.3 11.9 11.4 11.4 11.8 11 12.3 10.7L13.2 10.1C14 9.5 14.7 8.9 15 8.5 15.5 7.8 15.8 7 15.8 6 15.8 4.3 15.2 3.1 14.1 2.2ZM9.7 14.9C8.6 14.9 7.6 15.7 7.6 16.9 7.6 18.1 8.5 19 9.6 19 10.8 19 11.7 18.3 11.7 17 11.8 15.8 10.9 15 9.7 14.9Z"/>
</svg>
