<svg xmlns="http://www.w3.org/2000/svg" width="64" height="64" viewBox="0 0 1000 1000">
<g transform="translate(0.000000,511.000000) scale(0.100000,-0.100000)">
	<path d="M6923.3,3867.5c-169.8-56.6-257.8-121.6-513.6-379.4l-230.6-232.7l1100.5-1102.6l1100.5-1100.5l243.2,249.5c188.7,192.9,260,283,314.4,394.1c67.1,138.4,71.3,155.1,71.3,377.3c0,224.3-2.1,234.8-77.6,387.8c-71.3,140.4-127.9,205.4-660.3,733.7c-524.1,517.8-597.4,582.8-719,637.3C7374,3911.5,7101.5,3926.2,6923.3,3867.5z"/>
	<path d="M3799.9,876.1L1925.8-997.9l41.9-46.1c21-25.1,515.7-522,1096.3-1102.6l1058.6-1056.5l1882.4,1882.4L7887.6,561.7L6793.3,1655.9c-603.7,603.7-1100.5,1096.3-1106.8,1096.3S4831.3,1907.5,3799.9,876.1z"/>
	<path d="M980.4-2802.8L100-3683.2h1331.1h1331.1l220.1,220.1l220.1,220.1l-660.3,660.3c-362.6,362.6-664.5,660.3-670.8,660.3S1464.7-2318.6,980.4-2802.8z"/>
	<path d="M6242-2834.3c-574.4-92.2-1155-364.8-1551.2-731.6L4565-3681.2l2668.5-2.1H9900v440.2v440.2l-1744.1-2.1C6849.9-2807,6367.8-2813.3,6242-2834.3z"/>
</g>
</svg>