<svg xmlns="http://www.w3.org/2000/svg" width="64" height="64" viewBox="0 0 18 22" fill="none" stroke="#000" stroke-width="1.5" stroke-linecap="round" stroke-linejoin="round">
	<mask id="m">
		<rect x="-2" y="-2" width="20" height="24" fill="#fff" />
		<circle cx="13" cy="15" r="5" fill="#000" />
	</mask>
    <path d="M 15 4 L 15 15 C 15 17 14 18 12 18 L 4 18 C 2 18 1 17 1 15 L 1 4 C 1 2 2 1 4 1 L 12 1 L 15 4 M 15 5 l -4 0 l 0 -4" mask="url(#m)" />
	<path d="M 13 8 L 3 8 M 3 10 L 13 10 M 3 12 L 13 12 M 3 14 L 13 14" stroke-width=".75" mask="url(#m)" />
	
	<circle cx="13" cy="15" r="5" />
	<path d="M13 12 13 18 M10 15 16 15" />
</svg>
