<?xml version="1.0" encoding="UTF-8" standalone="no"?>
<svg
   xmlns:svg="http://www.w3.org/2000/svg"
   xmlns="http://www.w3.org/2000/svg"
   viewBox="0 0 101 84"
   height="84"
   width="101">
  <g>
    <path
       id="path3724"
       d="M 58.1 75 C 56.4 74.2 55.8 71.8 56.8 70.4 C 57.8 69.1 58.1 69 61.4 68.9 L 64.5 68.9 V 16.7 L 61.4 16.6 C 58.1 16.5 57.8 16.4 56.8 15.2 C 55.8 13.7 56.076 11.002 58.129 10.227 C 75.9 10.1 76.6 10.1 77.4 10.5 C 78.6 11 79.2 12 79.2 13.4 C 79.2 14.7 78.9 15.3 77.8 16.1 C 77.3 16.5 76.9 16.6 74.2 16.6 L 71.1 16.7 V 68.9 L 74.2 68.9 C 76.9 69 77.3 69.1 77.8 69.4 C 78.9 70.2 79.2 70.9 79.2 72.2 C 79.2 73.6 78.6 74.5 77.4 75.1 C 76.6 75.5 75.9 75.5 67.8 75.5 C 59.1 75.5 59 75.5 58.1 75 Z M 13.6 60.6 C 12.6 60.2 11.7 59.2 11.5 58.3 L 11.5 26.8 L 12 26.2 C 13.1 24.7 11.1 24.8 37.6 24.7 L 61.4 24.7 V 31.3 H 18 V 54.3 H 61.4 V 60.9 C 18.2 60.9 14.3 60.8 13.6 60.6 Z M 74.3 60.7 V 54.3 H 83.8 V 31.3 H 74.2 V 24.7 L 81.1 24.7 C 87.9 24.8 88.1 24.8 88.8 25.2 C 89.3 25.5 89.8 26.1 90 26.6 C 90.4 27.5 90.4 27.7 90.4 42.7 C 90.4 53 90.4 58.2 90.2 58.6 C 89.9 59.4 88.8 60.5 88 60.7 C 87.2 60.9 74.5 61 74.3 60.7 Z M 23.1 51.2 C 22.7 50.8 22.5 50.4 22.5 50 C 28.7 35.9 29.3 34.7 29.8 34.4 C 30.6 34 31.5 34.1 32.1 34.6 C 32.6 35.1 39 49.2 39 49.9 C 39 50.4 38.4 51.4 38 51.6 C 37.3 52 36.2 51.9 35.7 51.4 C 35.4 51.1 35 50.4 34.8 49.8 L 34.4 48.7 H 30.7 H 27.1 L 26.6 49.9 C 26.4 50.5 26 51.2 25.7 51.4 C 24.9 52 23.9 52 23.1 51.2 Z M 32.7 44.9 C 32 42.9 30.9 40.3 30.7 40.5 C 30.6 40.6 28.7 45 28.7 45.2 C 28.7 45.2 29.6 45.2 30.8 45.2 C 32.7 45.2 32.9 45.2 32.7 44.9 Z"
       style="fill:#000000;" />
  </g>
</svg>
