<?xml version="1.0" encoding="UTF-8" standalone="no"?>
<!DOCTYPE svg PUBLIC "-//W3C//DTD SVG 20010904//EN"
              "http://www.w3.org/TR/2001/REC-SVG-20010904/DTD/svg10.dtd">
<svg xmlns="http://www.w3.org/2000/svg"
     viewBox="0 0 23 16">
  <path d="M 12.73,0.10
           C 16.15,0.10 19.08,3.06 19.08,6.48
             19.08,7.65 18.75,8.75 18.18,9.69
             18.18,9.69 21.96,13.47 21.96,13.47
             22.33,13.84 22.47,14.31 22.09,14.68
             22.09,14.68 21.15,15.62 21.15,15.62
             20.78,15.99 20.18,15.99 19.81,15.62
             19.81,15.62 16.25,11.78 14.86,10.28
             14.98,10.18 17.17,8.13 17.17,6.48
             17.17,4.11 15.10,2.00 12.73,2.00
             12.25,2.00 9.56,0.16 12.73,0.10 Z
           M 16.17,13.47
           C 16.17,13.47 12.39,9.69 12.39,9.69
             12.96,8.75 13.29,7.65 13.29,6.48
             13.29,3.06 10.33,0.10 6.91,0.10
             3.49,0.10 0.73,2.87 0.73,6.29
             0.73,9.70 3.69,12.66 7.10,12.66
             8.24,12.66 9.30,12.35 10.22,11.82
             10.22,11.82 14.02,15.62 14.02,15.62
             14.39,15.99 14.99,15.99 15.36,15.62
             15.36,15.62 16.31,14.68 16.31,14.68
             16.68,14.31 16.54,13.84 16.17,13.47 Z
           M 2.63,6.29
           C 2.63,3.92 4.55,2.00 6.91,2.00
             9.28,2.00 11.38,4.11 11.38,6.48
             11.38,8.84 9.47,10.76 7.10,10.76
             4.74,10.76 2.63,8.65 2.63,6.29 Z" />
</svg>
