<svg xmlns="http://www.w3.org/2000/svg" viewBox="0 0 20 20" width="64" height="64">
<path d="M 16.8 10 c 0 -1 0.6 -1.9 1.6 -2.4 c -0.2 -0.6 -0.4 -1.1 -0.7 -1.7 c -1.1 0.3 -2 -0.1 -2.7 -0.9 c -0.7 -0.7 -1 -1.6 -0.7 -2.7 c -0.5 -0.3 -1.1 -0.5 -1.7 -0.7 C 12.1 2.6 11 3.2 10 3.2 c -1 0 -2.1 -0.6 -2.6 -1.6 C 6.8 1.8 6.2 2 5.7 2.3 c 0.3 1.1 0.1 2 -0.7 2.7 C 4.3 5.7 3.4 6.2 2.3 5.9 C 2 6.4 1.8 7 1.6 7.6 C 2.6 8.1 3.2 9 3.2 10 c 0 1 -0.6 2.1 -1.6 2.6 c 0.2 0.6 0.4 1.1 0.7 1.7 c 1.1 -0.3 2 -0.1 2.7 0.7 c 0.7 0.7 1 1.6 0.7 2.7 c 0.5 0.3 1.1 0.5 1.7 0.7 c 0.6 -1 1.6 -1.6 2.6 -1.6 c 1 0 2.1 0.6 2.6 1.6 c 0.6 -0.2 1.1 -0.4 1.7 -0.7 c -0.3 -1.1 -0.1 -2 0.7 -2.7 c 0.7 -0.7 1.6 -1.2 2.7 -0.9 c 0.3 -0.5 0.5 -1.1 0.7 -1.7 C 17.4 11.9 16.8 11 16.8 10 z M 10 13.7 c -2 0 -3.7 -1.6 -3.7 -3.7 c 0 -2 1.6 -3.7 3.7 -3.7 c 2 0 3.7 1.6 3.7 3.7 C 13.7 12 12 13.7 10 13.7 z"/>
</svg>
