<svg xmlns="http://www.w3.org/2000/svg" viewBox="0 0 200 200" width="64" height="64">
<path d="M168 100C168 90 174 81 184 76 182 70 180 65 177 59 166 62 157 58 150 50 143 43 140 34 143 23 138 20 132 18 126 16 121 26 110 32 100 32 90 32 79 26 74 16 68 18 62 20 57 23 60 34 58 43 50 50 43 57 34 62 23 59 20 64 18 70 16 76 26 81 32 90 32 100 32 110 26 121 16 126 18 132 20 137 23 143 34 140 43 142 50 150 57 157 60 166 57 177 62 180 68 182 74 184 80 174 90 168 100 168 110 168 121 174 126 184 132 182 137 180 143 177 140 166 142 157 150 150 157 143 166 138 177 141 180 136 182 130 184 124 174 119 168 110 168 100ZM100 137C80 137 63 121 63 100 63 80 79 63 100 63 120 63 137 79 137 100 137 120 120 137 100 137Z"/>
</svg>
