<svg version="1.1" xmlns="http://www.w3.org/2000/svg" viewBox="0 0 100 100" fill="white" width="64" height="64">
<path d="M85 97H15C7 97 1 91 1 83V65C1 63 3 61 5 61H12C13 61 15 63 15 65V76C15 80 18 83 22 83H78C82 83 85 80 85 76V65C85 63 87 61 89 61H96C97 61 99 63 99 65V83C99 91 93 97 85 97L85 97ZM78 45C77 46 75 46 73 45L57 28V65C57 67 55 68 54 68H47C45 68 43 67 43 65V28L27 45C25 46 23 46 22 45L16 40C15 38 15 36 16 34L45 4C45 4 47 2 50 2 53 2 55 4 55 4L84 34C85 36 85 38 84 40L78 45 78 45Z"/>
</svg>