<svg xmlns="http://www.w3.org/2000/svg"  viewBox="0 0 32 32" width="32px" height="32px"><path d="M29.818,13.847C29.742,13.36,29.323,13,28.83,13H16c-0.553,0-1,0.447-1,1v5c0,0.553,0.447,1,1,1h5.744	c-1.289,1.86-3.411,3-5.744,3c-3.859,0-7-3.141-7-7s3.141-7,7-7c1.691,0,3.328,0.618,4.608,1.741	c0.396,0.347,0.994,0.328,1.366-0.045l3.536-3.535c0.192-0.192,0.298-0.455,0.293-0.728c-0.006-0.271-0.122-0.53-0.322-0.715	C22.882,3.321,19.515,2,16,2c-1.286,0-2.557,0.174-3.777,0.516c-0.532,0.149-0.843,0.701-0.693,1.232	c0.149,0.529,0.699,0.834,1.22,0.694c0,0.015,0.004,0.033,0.004,0.048c0.72-0.044,1.32,0.222,1.611,1.047	c0.214,0.746-0.178,1.523-0.882,1.806c-0.036,0.015-0.07,0.034-0.106,0.049c-3.184,0.972-5.617,3.667-6.223,6.993	c-1.787,6.598,3.853,14.178,11.173,13.379c-0.012,0.004-0.023,0.006-0.035,0.01C17.549,27.919,16.784,28,16,28	C9.383,28,4,22.618,4,16c0-4.255,2.181-8.104,5.834-10.297c0.474-0.284,0.627-0.898,0.343-1.372S9.278,3.703,8.805,3.989	C4.607,6.508,2,11.111,2,16c0,7.72,6.28,14,14,14s14-6.28,14-14C30,15.338,29.94,14.633,29.818,13.847z"/></svg>