<svg xmlns="http://www.w3.org/2000/svg"  viewBox="0 0 50 50" width="64" height="64">
	<rect width="40px" height="40px" rx="5" ry="5" x="5" y="5" fill="#ffffff"/>
	<path d="M 18.375 15.998 C 18.196 15.998 18.0176 16.1737 18.0176 16.3477 L 18.0176 17.6504 C 18.0176 17.8254 18.196 18 18.375 18 L 19.8105 18 L 24.1055 26.0195 L 20.7051 32.1191 L 14.2637 18 L 15.6426 18 C 15.8216 18 16 17.8263 16 17.6523 L 16 16.3496 C 16 16.1746 15.8216 16 15.6426 16 L 8.3574 16 C 8.1784 16 8 16.1737 8 16.3477 L 8 17.6504 C 8 17.8254 8.1784 18 8.3574 18 L 10.5059 18 L 19.8105 36.8262 C 19.9005 36.9132 19.989 37 20.168 37 C 20.347 37 20.4373 36.9132 20.5273 36.8262 L 25.2695 28.2871 L 29.6523 36.8262 C 29.7423 36.9132 29.8327 37 30.0117 37 C 30.1897 37 30.2782 36.9132 30.3672 36.8262 L 39.584 17.9121 L 41.6426 17.9121 C 41.8216 17.9121 42 17.7385 42 17.5645 L 42 16.3496 C 42 16.1746 41.8216 16 41.6426 16 L 35.3574 16 C 35.1784 16 35 16.1737 35 16.3477 L 35 17.6504 C 35 17.8254 35.1794 18 35.3574 18 L 37.168 18 L 30.457 32.1191 L 26.9688 25.1484 L 31.2637 18 L 32.6426 18 C 32.8216 18 33 17.8263 33 17.6523 L 33 16.3496 C 33 16.1746 32.8216 16 32.6426 16 L 27.3574 16 C 27.1784 16 27 16.1737 27 16.3477 L 27 17.6504 C 27 17.8254 27.1784 18 27.3574 18 L 28.7578 18 L 25.8047 22.8848 L 23.3887 18 L 24.6426 18 C 24.8216 18 25 17.8263 25 17.6523 L 25 16.3496 C 25 16.1746 24.8216 15.999 24.6426 15.998 L 18.375 15.998 z"/></svg>